<?xml version="1.0"?>
<svg xmlns="http://www.w3.org/2000/svg" xmlns:svg="http://www.w3.org/2000/svg" width="420" height="79" viewBox="65 195 420 79">
 <g class="layer">
  <title>Layer 1</title>
  <g fill="#101820" fill-rule="nonzero" font-family="none" font-size="none" font-weight="none" id="svg_1" stroke-dashoffset="0" stroke-miterlimit="10" text-anchor="none">
   <g data-paper-data="{&quot;isGlobalGroup&quot;:true,&quot;bounds&quot;:{&quot;x&quot;:65,&quot;y&quot;:195.4159969442982,&quot;width&quot;:420,&quot;height&quot;:79.16800611140357}}" id="svg_2">
    <g data-paper-data="{&quot;isPrimaryText&quot;:true}" id="element-id-91507">
     <path d="m176.12,272.19c3.89,0 6.87,-2.09 8.97,-6.28c1.79,3.89 4.77,6.28 9.55,6.28c5.98,0 9.26,-5.68 10.76,-10.76c0.6,-1.79 -0.6,-3.28 -2.09,-3.28c-0.9,0 -1.8,0.59 -2.09,2.09c-0.9,2.99 -2.99,7.76 -6.58,7.76c-3.88,0 -3.88,-9.55 -3.58,-14.63c1.19,-18.52 3.29,-37.04 6.57,-53.77c0.9,-2.69 -1.19,-4.18 -3.28,-4.18c-1.8,0 -3.59,0.89 -3.89,2.68c-2.69,12.85 -4.78,27.49 -6.27,42.12c-1.49,-1.19 -3.59,-2.09 -6.27,-2.09c-8.07,0 -12.25,6.57 -13.45,13.74c-4.48,6.28 -10.75,8.67 -17.92,8.67c-16.13,0 -37.34,-10.46 -56.76,-10.46c-8.06,0 -15.83,2.09 -22.7,7.47c-1.49,0.9 -2.09,2.09 -2.09,3.29c0,2.09 1.79,3.88 3.88,3.88c1.2,0 2.09,-0.6 3.29,-1.49c6.27,-4.78 13.44,-6.58 20.91,-6.58c17.33,0 37.04,8.97 52.87,8.97c6.87,0 13.15,-1.8 18.22,-6.58c0.9,8.67 5.98,13.15 11.95,13.15zm0.6,-4.48c-3.88,0.29 -5.38,-5.38 -5.08,-11.36c0,-6.57 1.8,-14.04 7.17,-13.74c3.89,0 4.78,3.59 4.78,6.87c0,1.5 -0.3,2.99 -0.3,4.19c-0.3,8.36 -2.69,14.04 -6.57,14.04z" data-paper-data="{&quot;glyphName&quot;:&quot;&quot;,&quot;glyphIndex&quot;:0,&quot;firstGlyphOfWord&quot;:true,&quot;word&quot;:1}" id="element-id-32327"/>
     <path d="m215.55,274.58c7.47,0 15.84,-5.08 18.23,-14.64c0.59,-1.79 -0.6,-2.99 -2.09,-2.99c-0.9,0 -1.8,0.6 -2.1,1.79c-1.79,6.58 -8.06,11.65 -13.44,11.65c-5.37,0 -7.76,-4.77 -8.66,-10.15c1.49,0.89 3.29,1.49 5.08,1.49c7.17,0 11.05,-6.57 11.05,-12.54c0,-5.68 -2.99,-11.06 -9.56,-11.06c-9.86,0 -14.04,10.76 -14.04,18.82c0,8.96 4.78,17.93 15.53,17.63zm-2.98,-17.33c-2.99,0 -4.78,-2.69 -4.78,-5.38c1.19,-5.07 3.28,-9.26 5.97,-9.26c3.29,0 4.48,3.59 4.48,6.28c0,3.88 -1.79,8.36 -5.67,8.36z" data-paper-data="{&quot;glyphName&quot;:&quot;e&quot;,&quot;glyphIndex&quot;:1,&quot;word&quot;:1}" id="element-id-90327"/>
     <path d="m245.73,271.89c3.58,0 7.46,-1.5 9.55,-4.18c1.2,1.19 2.69,1.79 4.19,1.79c3.88,0 8.36,-3.29 9.85,-8.96c0.6,-1.5 -0.89,-2.39 -2.09,-2.39c-0.89,0 -1.79,0.3 -2.09,1.19c-1.19,3.89 -3.28,5.68 -5.08,5.68c-1.49,0 -2.68,-1.2 -2.68,-3.59c-0.3,-9.85 -8.97,-9.56 -8.97,-19.11l0.3,-2.99c0,-1.2 0,-2.69 -1.79,-2.99c-13.14,-0.6 -15.23,15.24 -17.92,24.79c-0.6,1.2 0.89,2.69 2.39,2.69c0.59,0 1.49,-0.59 1.79,-1.49c1.79,-5.08 3.29,-14.64 7.77,-19.12c0.29,12.55 8.96,13.44 8.96,18.82c0,3.59 -2.39,5.38 -4.78,5.38c-2.39,0 -4.48,-1.79 -4.48,-5.08c0,-1.49 -0.9,-1.79 -2.09,-1.79c-1.2,0 -2.39,0.59 -2.39,1.79c0,6.57 4.78,9.56 9.56,9.56z" data-paper-data="{&quot;glyphName&quot;:&quot;s&quot;,&quot;glyphIndex&quot;:2,&quot;word&quot;:1}" id="element-id-3245"/>
     <path d="m275.6,273.08c5.97,0 12.24,-4.18 14.34,-11.65c0.59,-1.79 -0.6,-3.28 -1.8,-3.28c-0.89,0 -2.09,0.59 -2.39,2.09c-1.49,5.08 -4.78,7.76 -8.06,7.76c-5.98,-0.29 -7.77,-8.96 -7.77,-19.41c0,-8.07 1.2,-17.03 2.09,-24.5l9.26,0c0.9,0 1.5,-1.19 1.5,-2.39c0,-1.19 -0.3,-2.09 -1.5,-2.09l-8.66,0l1.49,-7.47c0.9,-2.68 -1.19,-4.18 -3.28,-4.18c-1.79,0 -3.59,0.9 -3.89,2.69c-0.59,2.39 -1.19,5.38 -1.79,8.96l-5.97,0c-1.2,0 -1.79,1.2 -1.79,2.39c0,0.9 0.59,2.09 1.79,2.09l5.08,0c-1.2,7.17 -2.09,15.84 -2.09,23.6c0,13.44 2.98,25.09 13.44,25.39z" data-paper-data="{&quot;glyphName&quot;:&quot;t&quot;,&quot;glyphIndex&quot;:3,&quot;word&quot;:1}" id="element-id-37270"/>
     <path d="m296.81,272.19c4.48,0 8.66,-2.09 11.65,-6.28c1.79,1.5 4.18,2.39 6.87,2.69c4.18,0 8.06,-2.09 9.26,-7.47c0.59,-1.79 -0.9,-2.68 -2.39,-2.68c-0.9,0 -1.79,0.29 -1.79,1.19c-0.9,2.99 -2.99,4.18 -5.08,4.18c-2.09,0 -3.59,-0.89 -4.78,-1.79c0.89,-2.39 1.49,-5.08 1.49,-8.36c0.3,-10.46 -5.38,-15.54 -12.25,-15.84c-7.76,0 -15.53,6.28 -15.53,18.23c0.3,10.75 5.97,16.13 12.55,16.13zm0.3,-4.48c-2.99,0 -5.08,-3.89 -5.38,-11.65c0,-8.67 3.88,-13.75 7.77,-13.75c1.19,0.3 2.38,0.9 3.28,2.1c-0.6,2.39 -0.9,5.07 -0.9,7.46c0,2.69 0.9,5.68 1.8,8.07c-1.2,5.38 -3.89,8.06 -6.57,7.77z" data-paper-data="{&quot;glyphName&quot;:&quot;o&quot;,&quot;glyphIndex&quot;:4,&quot;word&quot;:1}" id="element-id-17456"/>
     <path d="m345.2,272.49c5.97,0 8.96,-5.98 10.75,-11.06c0.6,-1.79 -0.89,-3.28 -2.09,-3.28c-0.89,0 -2.09,0.59 -2.39,2.09c-0.89,2.99 -2.69,7.76 -6.27,7.76c-2.99,0 -3.88,-5.37 -3.88,-11.35c0.29,-6.57 1.19,-14.34 1.79,-16.43c0.89,-2.68 -1.5,-3.88 -3.89,-3.88c-4.18,0 -10.15,3.29 -12.84,2.99c-0.9,0 -0.9,-1.5 0.6,-5.08c0.3,-1.49 -1.8,-2.39 -3.59,-2.39c-1.79,0 -3.28,0.6 -3.88,2.09c-0.6,1.79 -0.9,3.29 -0.9,4.48c0,3.59 2.09,5.08 4.48,5.38c-0.29,5.67 -1.19,11.05 -2.98,16.43c-0.3,1.49 0.89,2.99 2.39,2.99c0.59,0 1.49,-0.6 2.09,-1.8c1.79,-5.67 2.69,-11.95 2.98,-17.92c2.69,-0.3 5.38,-1.49 7.77,-2.09c-0.89,3.88 -1.49,8.96 -1.49,13.74c0,8.66 2.39,17.33 11.35,17.33z" data-paper-data="{&quot;glyphName&quot;:&quot;r&quot;,&quot;glyphIndex&quot;:5,&quot;word&quot;:1}" id="element-id-8397"/>
     <path d="m365.51,274.58c11.05,0 16.43,-7.77 19.12,-16.73c5.38,5.67 11.95,7.77 19.42,7.77c16.13,0 35.54,-8.97 52.87,-8.97c7.47,0 14.64,1.8 20.91,6.58c1.2,0.89 2.09,1.19 3.29,1.19c2.09,0 3.88,-1.79 3.88,-3.58c0,-1.2 -0.6,-2.39 -1.79,-3.29c-6.87,-5.38 -14.64,-7.47 -23,-7.47c-19.72,0 -41.53,10.76 -57.36,10.46c-14.34,-0.3 -15.83,-9.86 -19.41,-9.86c-0.9,0 -1.8,0.3 -2.1,1.79c-1.79,7.77 -5.97,17.92 -15.23,17.92c-5.38,0 -7.77,-4.77 -8.66,-10.15c1.49,0.89 3.28,1.49 5.07,1.49c7.17,0 11.06,-6.57 11.06,-12.54c0,-5.68 -2.99,-11.06 -9.56,-11.06c-9.86,0 -14.04,10.76 -14.04,18.82c0,8.96 4.78,17.93 15.53,17.63zm-2.99,-17.33c-2.98,0 -4.77,-2.69 -4.77,-5.38c1.19,-5.07 3.28,-9.26 5.97,-9.26c3.29,0 4.48,3.59 4.48,6.28c0,3.88 -1.79,8.36 -5.68,8.36z" data-paper-data="{&quot;glyphName&quot;:&quot;&quot;,&quot;glyphIndex&quot;:6,&quot;lastGlyphOfWord&quot;:true,&quot;word&quot;:1}" id="element-id-94111"/>
    </g>
   </g>
  </g>
  <rect class="invisible-element-box grouping-element" data-element-id="element-id-91507" data-element-name="isPrimaryText" fill="transparent" height="79" id="svg_3" stroke-width="2" width="420" x="65" y="195"/>
  <rect class="invisible-element-box individual-element" data-element-id="element-id-32327" fill="transparent" height="77" id="svg_4" stroke-width="2" width="141" x="65" y="195"/>
  <rect class="invisible-element-box individual-element" data-element-id="element-id-94111" fill="transparent" height="36" id="svg_5" stroke-width="2" width="135" x="350" y="238"/>
  <rect class="invisible-element-box individual-element" data-element-id="element-id-37270" fill="transparent" height="65" id="svg_6" stroke-width="2" width="33" x="202" y="213"/>
  <rect class="invisible-element-box individual-element" data-element-id="element-id-8397" fill="transparent" height="41" id="svg_7" stroke-width="2" width="38" x="319" y="232"/>
  <rect class="invisible-element-box individual-element" data-element-id="element-id-3245" fill="transparent" height="36" id="svg_8" stroke-width="2" width="41" x="229" y="236"/>
  <rect class="invisible-element-box individual-element" data-element-id="element-id-17456" fill="transparent" height="34" id="svg_9" stroke-width="2" width="40" x="89" y="218"/>
  <rect class="invisible-element-box individual-element" data-element-id="element-id-90327" fill="transparent" height="36" id="svg_10" stroke-width="2" width="34" x="200" y="238"/>
 </g>
</svg>